<svg xmlns="http://www.w3.org/2000/svg" viewBox="0 0 1200 1200">
  <defs>
    <linearGradient id="badgeBg" x1="0" y1="0" x2="0" y2="1">
      <stop offset="0" stop-color="#E08A3C"/>
      <stop offset="1" stop-color="#C1591D"/>
    </linearGradient>
  </defs>
  <rect x="60" y="60" width="1080" height="1080" rx="260" fill="url(#badgeBg)"/>
  <g transform="translate(-83.16,220.75) scale(0.6724)">
<defs>
	<linearGradient id="svgi_r_19___Gradient1" gradientUnits="userSpaceOnUse" x1="1495.34" y1="935.402" x2="1467.01" y2="913.218">
		<stop class="stop0" offset="0" stop-opacity="1" stop-color="rgb(112,97,88)"></stop>
		<stop class="stop1" offset="1" stop-opacity="1" stop-color="rgb(133,120,109)"></stop>
	</linearGradient>
	<linearGradient id="svgi_r_19___Gradient2" gradientUnits="userSpaceOnUse" x1="1358.69" y1="989.105" x2="1409.73" y2="1021.66">
		<stop class="stop0" offset="0" stop-opacity="1" stop-color="rgb(132,120,107)"></stop>
		<stop class="stop1" offset="1" stop-opacity="1" stop-color="rgb(160,150,140)"></stop>
	</linearGradient>
	<linearGradient id="svgi_r_19___Gradient3" gradientUnits="userSpaceOnUse" x1="942.646" y1="248.186" x2="910.182" y2="304.861">
		<stop class="stop0" offset="0" stop-opacity="1" stop-color="rgb(225,225,222)"></stop>
		<stop class="stop1" offset="1" stop-opacity="1" stop-color="rgb(250,250,248)"></stop>
	</linearGradient>
	<linearGradient id="svgi_r_19___Gradient4" gradientUnits="userSpaceOnUse" x1="733.513" y1="416.391" x2="781.123" y2="422.199">
		<stop class="stop0" offset="0" stop-opacity="1" stop-color="rgb(150,148,145)"></stop>
		<stop class="stop1" offset="1" stop-opacity="1" stop-color="rgb(190,188,185)"></stop>
	</linearGradient>
	<linearGradient id="svgi_r_19___Gradient5" gradientUnits="userSpaceOnUse" x1="1015.29" y1="306.126" x2="936.763" y2="255.911">
		<stop class="stop0" offset="0" stop-opacity="1" stop-color="rgb(195,193,190)"></stop>
		<stop class="stop1" offset="1" stop-opacity="1" stop-color="rgb(225,223,220)"></stop>
	</linearGradient>
	<linearGradient id="svgi_r_19___Gradient6" gradientUnits="userSpaceOnUse" x1="1147.8" y1="292.055" x2="1141.4" y2="374.295">
		<stop class="stop0" offset="0" stop-opacity="1" stop-color="rgb(24,17,13)"></stop>
		<stop class="stop1" offset="1" stop-opacity="1" stop-color="rgb(69,45,25)"></stop>
	</linearGradient>
</defs>
<path transform="translate(0,0)" fill="rgb(34,23,16)" d="M 950.075 17.1774 C 878.688 85.3621 984.282 118.308 1037.96 121.541 C 1092.93 124.851 1188.63 135.404 1193.19 204.94 C 1195.62 227.797 1172.61 251.052 1172.73 256.761 L 1173.72 257.43 C 1237.09 267.322 1409.26 297.734 1447.23 350.039 C 1453.82 359.113 1454.88 366.786 1453.04 377.632 C 1450.38 393.38 1445.69 409.18 1441.87 424.701 C 1429.42 475.35 1414.99 524.906 1395.36 573.314 C 1391.18 583.61 1387.26 595.153 1381.02 604.367 C 1393.78 616.441 1410.3 629.763 1426.2 637.358 C 1440.46 633.113 1447.97 630.168 1460.28 621.483 C 1455.29 605.748 1455.77 593.535 1469.71 582.831 C 1463.2 571.267 1458.67 559.009 1458.16 545.644 C 1456.91 512.415 1472.8 480.63 1510.32 483.861 C 1515.06 472.898 1520.75 466.461 1532.65 461.971 C 1558.99 452.031 1574.9 461.085 1598.17 470.265 C 1645.99 489.135 1673.79 548.775 1652.23 596.586 C 1638.5 627.037 1601.78 657.795 1566.35 660.732 C 1557.46 672.267 1549.56 678.928 1534.51 680.883 C 1533.6 681.006 1532.7 681.1 1531.78 681.166 L 1530.74 681.186 C 1523.17 680.672 1518.69 680.213 1511.32 677.559 C 1493.75 688.75 1468.68 703.818 1447.61 706.444 L 1446.12 707.074 C 1399.58 712.75 1381.77 695.711 1345.49 672.815 C 1325.15 698.548 1307.69 719.684 1279.56 737.702 C 1271.29 742.995 1262.24 747.173 1253.84 752.123 C 1248.34 754.395 1241.42 757.452 1235.93 759.418 L 1231.24 761.164 C 1217.61 765.674 1209.58 763.424 1195.69 761.531 C 1190.82 760.867 1171.44 755.82 1168.08 757.737 C 1178.03 762.776 1188.28 767.209 1198.78 771.011 C 1230.61 783.645 1251.38 787.587 1266.61 820.619 C 1269.6 827.101 1276.13 841.354 1279.44 847.262 C 1308.67 830.797 1322.45 838.893 1336.15 868.011 C 1347.82 865.721 1372.16 858.8 1382.78 853.631 C 1405.56 842.55 1417.09 834.487 1443.6 831.146 L 1449.21 830.883 C 1465.48 831.491 1477.85 833.504 1492.06 842.429 L 1500.6 848.504 C 1542.07 887.261 1527.98 932.681 1493.11 968.741 C 1460.62 1002.35 1426.04 1021.59 1385.51 1042.61 L 1377.43 1036.83 L 1376.94 1037.39 C 1368.3 1047.47 1365.9 1054.98 1352.61 1062.28 C 1349.79 1063.97 1348.36 1064.08 1347.47 1066.58 C 1363.91 1069 1429.58 1072.18 1437.57 1080.11 C 1436.73 1086.18 1414.68 1088.54 1409.16 1089.27 L 1386.8 1092.14 C 1309.6 1100.14 1180.31 1101.5 1103.33 1102.12 C 1044.94 1102.59 658.31 1097.78 640.532 1080.62 L 640.814 1079.04 C 648.263 1073.8 684.124 1071.05 694.896 1069.93 L 708.988 1068.91 C 745.206 1066.45 781.462 1064.58 817.741 1063.3 C 844.229 1062.93 871.776 1061.72 898.312 1060.84 C 1002.8 1057.8 1107.36 1058.26 1211.82 1062.21 C 1209.12 1051.82 1210.99 1043.07 1209.17 1035.71 C 1202.47 1008.77 1195.44 993.961 1199.83 965.435 C 1187.72 950.627 1187.7 925.576 1205.09 914.632 C 1207.3 913.242 1210.01 911.94 1212.35 910.734 C 1202.55 883.393 1191.02 845.614 1167 827.69 C 1143.86 810.418 1108.5 796.684 1080.24 789.575 C 1064.32 814.244 1044.32 838.494 1021.22 856.457 C 986.292 883.627 953.564 884.82 911.146 879.104 C 903.93 903.642 887.636 908.602 863.626 908.706 C 857.024 919.837 852.337 919.703 846.089 927.315 C 838.333 936.764 839.306 939.707 828.689 949.145 C 828.447 959.947 822.521 962.246 821.194 967.896 C 815.679 992.687 812.633 1011.36 794.674 1030.68 C 770.021 1057.21 730.79 1062.76 703.417 1036.62 C 681.974 1016.15 674.922 985.946 674.606 957.19 C 674.251 924.881 684.513 892.694 702.1 865.638 C 708.776 855.253 717.397 844.445 722.446 833.359 C 725.901 825.776 728.363 815.604 731.217 807.564 C 738.702 786.476 747.149 766.836 762.863 750.648 C 781.996 730.936 805.53 725.666 830.17 738.965 C 834.084 741.078 839.131 743.776 843.217 745.61 C 853.875 750.394 865.159 753.963 875.147 760.233 C 881.164 764.019 885.92 769.673 891.896 773.521 C 899.276 777.593 910.88 779.306 917.094 785.905 C 922.749 791.909 923.513 799.458 923.541 807.268 C 970.143 811.978 979.582 796.309 1001.44 758.068 C 988.147 749.263 983.856 738.417 975.194 731.489 C 968.375 726.035 951.74 717.995 942.657 711.377 C 914.068 690.548 894.89 665.57 879.078 634.06 C 875.008 625.947 870.277 617.07 867.6 608.474 C 843.336 591.657 818.166 576.226 793.134 560.576 C 773.296 566.091 764.832 574.953 750.601 588.608 C 762.308 603.699 763.744 613.206 751.606 628.778 C 772.957 658.586 777.489 698.39 742.661 722.275 C 738.543 725.099 732.516 726.538 727.642 727.892 C 718.663 746.581 690.894 751.459 673.515 743.439 C 668.911 741.314 665.655 738.602 661.8 735.43 C 639.852 733.352 630.022 727.164 620.052 709.751 C 619.531 708.84 613.314 705.064 611.802 703.847 C 572.275 672.042 593.669 612.553 628.797 586.763 C 632.249 583.525 651.498 576.93 653.21 573.745 C 660.15 560.832 657.507 557.227 674.307 551.207 C 683.165 549.193 690.87 552.701 695.43 548.852 C 703.795 529.878 738.712 502.258 756.712 493.929 C 753.887 491.193 753.383 491.011 749.737 489.696 C 729.318 503.236 728.839 493.523 716.498 477.257 C 644.492 382.354 712.449 247.054 836.833 303.308 C 836.825 269.772 863.552 260.332 892.493 254.627 C 944.683 244.339 1001.33 244.229 1054.29 246.929 L 1054.95 245.895 C 1054.7 245.294 1054.22 244.095 1053.7 243.657 C 1016.69 212.682 960.618 218.321 916.26 214.781 C 892.019 212.847 863.155 203.895 848.473 185.914 C 839.978 175.449 836.099 161.981 837.726 148.6 C 839.987 129.431 851.542 118.479 865.494 107.277 C 870.829 105.405 880.466 103.224 886.23 101.751 C 878.176 56.9364 914.124 32.0667 950.075 17.1774 z M 825.293 468.5 L 836.659 474.085 C 835.5 456.753 834.445 439.13 833.056 421.837 C 831.399 401.22 807.304 370.294 785.201 371.822 C 784.491 371.872 783.782 371.936 783.075 372.013 C 760.476 386.451 767.294 410.243 779.456 429.667 C 789.047 444.984 808.992 460.845 825.293 468.5 z"></path>
<path transform="translate(0,0)" fill="rgb(250,250,250)" d="M 906.308 338.565 C 955.427 357.783 1005.76 370.317 1057.61 379.732 C 1072.46 382.299 1087.36 384.638 1102.28 386.747 C 1107.72 387.535 1123.9 389.538 1128.28 391.233 C 1135.61 391.217 1138.34 392.073 1145.48 393.632 L 1157.37 400.367 C 1164.67 395.662 1168.46 396.386 1177.08 396.055 C 1227.87 401.54 1278.95 403.893 1330.03 403.099 C 1344.43 402.867 1358.74 400.977 1372.99 399.051 C 1375.7 398.685 1378.3 398.389 1381.04 398.706 C 1382.75 398.041 1390.02 396.962 1392.27 396.587 C 1393.81 397.144 1396.23 398.106 1397.74 398.514 C 1412.14 397.073 1418.04 396.247 1431.61 391.568 C 1411.44 476.477 1376.01 601.635 1322.51 671.739 C 1306.52 693.101 1286.68 711.294 1264.02 725.383 C 1243.47 738.082 1217.94 747.807 1194.01 751.476 C 1179.79 745.408 1173.96 743.561 1158.86 740.424 C 1149.45 737.595 1139.36 737.715 1129.65 736.422 C 1081.87 730.057 1033.79 713.203 997.026 681.169 C 960.037 648.939 938.609 603.46 926.354 556.784 C 925.953 555.255 926.239 554.443 925.476 552.231 C 924.024 535.765 918.905 527.269 909.305 514.369 C 908.729 496.464 904.217 471.622 903.153 451.629 C 901.032 411.78 903.535 378.011 906.308 338.565 z"></path>
<path transform="translate(0,0)" fill="rgb(115,113,110)" d="M 950.075 17.1774 C 878.688 85.3621 984.282 118.308 1037.96 121.541 C 1092.93 124.851 1188.63 135.404 1193.19 204.94 C 1195.62 227.797 1172.61 251.052 1172.73 256.761 L 1173.72 257.43 C 1170.04 257.876 1161.68 267.109 1158.56 270.19 L 1158.15 271.891 L 1158.8 272.46 C 1177.42 275.102 1195.98 278.107 1214.48 281.475 C 1218.21 282.149 1232.44 284.625 1235.12 285.665 C 1280.26 292.973 1398.32 322.063 1431.55 358.158 C 1434.33 361.172 1436.49 367.891 1435.72 372.214 C 1434.78 377.423 1431.58 381.286 1427.21 384.242 C 1417.38 390.89 1403.78 394.221 1392.27 396.587 C 1390.02 396.962 1382.75 398.041 1381.04 398.706 C 1378.3 398.389 1375.7 398.685 1372.99 399.051 C 1358.74 400.977 1344.43 402.867 1330.03 403.099 C 1278.95 403.893 1227.87 401.54 1177.08 396.055 C 1168.46 396.386 1164.67 395.662 1157.37 400.367 L 1145.48 393.632 C 1138.34 392.073 1135.61 391.217 1128.28 391.233 C 1123.9 389.538 1107.72 387.535 1102.28 386.747 C 1087.36 384.638 1072.46 382.299 1057.61 379.732 C 1005.76 370.317 955.427 357.783 906.308 338.565 C 900.155 335.688 894.137 332.844 887.869 330.21 C 861.77 315.06 832.563 292.225 878.127 276.171 L 879.59 277.625 C 878.225 282.566 875.153 290.162 877.407 294.249 C 881.054 286.812 886.255 285.088 893.623 282.521 C 896.304 281.076 901.103 280.05 904.208 279.253 L 919.284 276.455 C 924.489 273.453 968.863 271.983 977.501 271.887 C 976.616 269.31 975.996 268.919 974.074 267.015 L 973.451 266.404 C 976.593 265.52 977.819 265.03 980.544 263.171 C 998.269 262.149 1017.61 262.658 1035.36 263.144 C 1044.14 263.19 1052.79 264.091 1060.97 264.161 C 1063.86 264.237 1066.07 264.706 1068.32 263.127 C 1069.32 256.457 1060.38 247.842 1054.29 246.929 L 1054.95 245.895 C 1054.7 245.294 1054.22 244.095 1053.7 243.657 C 1016.69 212.682 960.618 218.321 916.26 214.781 C 892.019 212.847 863.155 203.895 848.473 185.914 C 839.978 175.449 836.099 161.981 837.726 148.6 C 839.987 129.431 851.542 118.479 865.494 107.277 C 870.829 105.405 880.466 103.224 886.23 101.751 C 878.176 56.9364 914.124 32.0667 950.075 17.1774 z"></path>
<path transform="translate(0,0)" fill="url(#svgi_r_19___Gradient6)" d="M 980.544 263.171 C 998.269 262.149 1017.61 262.658 1035.36 263.144 C 1044.14 263.19 1052.79 264.091 1060.97 264.161 C 1064.68 264.461 1068.31 264.199 1070.94 266.486 L 1072.85 271.11 C 1073.18 274.776 1074.04 281.653 1073.64 285.038 C 1072.15 300.675 1070 305.981 1061.23 319.037 C 1067.08 318.912 1073.61 319.175 1078.97 316.998 L 1079.6 316.746 C 1084.34 314.824 1088 311.364 1091.83 308.002 C 1103.19 308.089 1150.42 310.086 1153.69 323.685 C 1147.06 340.095 1016.55 324.351 1008.5 311.797 C 1008.32 302.616 1026.85 308.643 1028.34 300.683 L 1015.07 301.107 C 996.745 301.066 956.897 310.437 947.575 306.48 C 944.146 314.823 958.159 315.785 962.864 318.007 C 1043.23 355.963 1138.24 362.837 1225.71 371.096 C 1251.81 373.56 1279.81 370.473 1305.43 372.963 C 1312.03 371.354 1321.28 371.543 1329.61 369.503 L 1335.53 368.192 C 1338.51 367.606 1339.81 366.938 1342.51 365.735 C 1344.86 362.74 1344.43 364.088 1344.53 360.659 C 1342.91 357.702 1340.26 356.901 1337.2 355.517 C 1332.26 352.239 1328.45 351.027 1322.98 348.977 C 1324.83 346.774 1324.97 346.3 1325.96 343.587 L 1312.69 338.843 C 1261.9 321.497 1206.62 313.011 1153.88 304.684 C 1145.92 303.426 1116.42 301.368 1110.89 298.665 C 1113.29 296.426 1115.39 293.643 1117.48 291.076 C 1118.71 286.51 1125.42 291.405 1131.26 287.72 C 1135.44 287.538 1144.98 281.12 1148.95 278.703 C 1151.85 276.349 1155.32 272.913 1158.8 272.46 C 1177.42 275.102 1195.98 278.107 1214.48 281.475 C 1218.21 282.149 1232.44 284.625 1235.12 285.665 C 1280.26 292.973 1398.32 322.063 1431.55 358.158 C 1434.33 361.172 1436.49 367.891 1435.72 372.214 C 1434.78 377.423 1431.58 381.286 1427.21 384.242 C 1417.38 390.89 1403.78 394.221 1392.27 396.587 C 1390.02 396.962 1382.75 398.041 1381.04 398.706 C 1378.3 398.389 1375.7 398.685 1372.99 399.051 C 1358.74 400.977 1344.43 402.867 1330.03 403.099 C 1278.95 403.893 1227.87 401.54 1177.08 396.055 C 1168.46 396.386 1164.67 395.662 1157.37 400.367 L 1145.48 393.632 C 1138.34 392.073 1135.61 391.217 1128.28 391.233 C 1123.9 389.538 1107.72 387.535 1102.28 386.747 C 1087.36 384.638 1072.46 382.299 1057.61 379.732 C 1005.76 370.317 955.427 357.783 906.308 338.565 C 900.155 335.688 894.137 332.844 887.869 330.21 C 861.77 315.06 832.563 292.225 878.127 276.171 L 879.59 277.625 C 878.225 282.566 875.153 290.162 877.407 294.249 C 881.054 286.812 886.255 285.088 893.623 282.521 C 896.304 281.076 901.103 280.05 904.208 279.253 L 919.284 276.455 C 924.489 273.453 968.863 271.983 977.501 271.887 C 976.616 269.31 975.996 268.919 974.074 267.015 L 973.451 266.404 C 976.593 265.52 977.819 265.03 980.544 263.171 z"></path>
<path transform="translate(0,0)" fill="rgb(252,252,252)" d="M 878.127 276.171 L 879.59 277.625 C 878.225 282.566 875.153 290.162 877.407 294.249 C 885.243 311.99 910.649 320.673 927.537 327.222 C 973.35 344.986 1023.25 355.624 1071.48 364.36 C 1140.22 376.811 1339.92 401.244 1402.72 373.674 C 1406.43 372.048 1410.59 369.769 1411.98 365.694 C 1412.85 363.131 1412.15 360.422 1410.94 358.09 C 1407.68 351.818 1401.43 348.172 1395.6 344.628 C 1392.56 339.34 1343.7 322.96 1334.38 318.964 C 1333.58 323.158 1328.28 327.026 1324.76 329.429 C 1324.42 329.661 1324.08 329.885 1323.73 330.101 C 1313.55 326.419 1303.58 323.592 1293.21 320.577 L 1293.53 318.949 C 1292.58 315.534 1287.14 308.618 1284.81 305.369 C 1269.68 302.23 1255.95 297.534 1239.99 294.998 L 1237.1 294.3 C 1236.39 292.048 1234.68 287.713 1235.12 285.665 C 1280.26 292.973 1398.32 322.063 1431.55 358.158 C 1434.33 361.172 1436.49 367.891 1435.72 372.214 C 1434.78 377.423 1431.58 381.286 1427.21 384.242 C 1417.38 390.89 1403.78 394.221 1392.27 396.587 C 1390.02 396.962 1382.75 398.041 1381.04 398.706 C 1378.3 398.389 1375.7 398.685 1372.99 399.051 C 1358.74 400.977 1344.43 402.867 1330.03 403.099 C 1278.95 403.893 1227.87 401.54 1177.08 396.055 C 1168.46 396.386 1164.67 395.662 1157.37 400.367 L 1145.48 393.632 C 1138.34 392.073 1135.61 391.217 1128.28 391.233 C 1123.9 389.538 1107.72 387.535 1102.28 386.747 C 1087.36 384.638 1072.46 382.299 1057.61 379.732 C 1005.76 370.317 955.427 357.783 906.308 338.565 C 900.155 335.688 894.137 332.844 887.869 330.21 C 861.77 315.06 832.563 292.225 878.127 276.171 z"></path>
<path transform="translate(0,0)" fill="url(#svgi_r_19___Gradient5)" d="M 980.544 263.171 C 998.269 262.149 1017.61 262.658 1035.36 263.144 C 1037.26 263.602 1037.88 263.6 1039.37 264.912 L 1040.18 264.807 C 1038.13 266.621 1037.72 267.815 1036.64 270.324 L 1035.34 270.671 L 1031.3 272.259 C 1029.51 277.65 1036.53 277.404 1029.1 282.901 C 1023.45 282.931 1006.29 282.825 1001.62 283.812 C 972.892 285.047 951.063 286.613 922.675 292.573 L 921.694 291.963 C 920.439 289.242 921.249 281.968 921.014 277.693 L 919.284 276.455 C 924.489 273.453 968.863 271.983 977.501 271.887 C 976.616 269.31 975.996 268.919 974.074 267.015 L 973.451 266.404 C 976.593 265.52 977.819 265.03 980.544 263.171 z"></path>
<path transform="translate(0,0)" fill="rgb(220,220,218)" d="M 980.544 263.171 C 998.269 262.149 1017.61 262.658 1035.36 263.144 C 1037.26 263.602 1037.88 263.6 1039.37 264.912 L 1040.18 264.807 C 1038.13 266.621 1037.72 267.815 1036.64 270.324 L 1035.34 270.671 C 1020.63 270.758 1005.92 270.947 991.214 271.237 C 988.697 271.297 978.855 272.138 977.501 271.887 C 976.616 269.31 975.996 268.919 974.074 267.015 L 973.451 266.404 C 976.593 265.52 977.819 265.03 980.544 263.171 z"></path>
<path transform="translate(0,0)" fill="rgb(165,163,160)" d="M 1148.95 278.703 C 1151.85 276.349 1155.32 272.913 1158.8 272.46 C 1177.42 275.102 1195.98 278.107 1214.48 281.475 C 1218.21 282.149 1232.44 284.625 1235.12 285.665 C 1234.68 287.713 1236.39 292.048 1237.1 294.3 L 1239.99 294.998 C 1232.09 298.095 1233.28 299.477 1227.09 305.15 C 1210.97 302.074 1129.24 286.696 1117.48 291.076 C 1118.71 286.51 1125.42 291.405 1131.26 287.72 C 1135.44 287.538 1144.98 281.12 1148.95 278.703 z"></path>
<path transform="translate(0,0)" fill="rgb(220,220,218)" d="M 1148.95 278.703 C 1151.85 276.349 1155.32 272.913 1158.8 272.46 C 1177.42 275.102 1195.98 278.107 1214.48 281.475 C 1218.21 282.149 1232.44 284.625 1235.12 285.665 C 1234.68 287.713 1236.39 292.048 1237.1 294.3 C 1221.27 290.295 1202.34 287.846 1186.31 284.811 C 1178.8 283.389 1153.87 280.889 1148.95 278.703 z"></path>
<path transform="translate(0,0)" fill="rgb(165,163,160)" d="M 1035.36 263.144 C 1044.14 263.19 1052.79 264.091 1060.97 264.161 C 1064.68 264.461 1068.31 264.199 1070.94 266.486 L 1072.85 271.11 C 1073.18 274.776 1074.04 281.653 1073.64 285.038 C 1049.09 283.321 1025.71 284.779 1001.62 283.812 C 1006.29 282.825 1023.45 282.931 1029.1 282.901 C 1036.53 277.404 1029.51 277.65 1031.3 272.259 L 1035.34 270.671 L 1036.64 270.324 C 1037.72 267.815 1038.13 266.621 1040.18 264.807 L 1039.37 264.912 C 1037.88 263.6 1037.26 263.602 1035.36 263.144 z"></path>
<path transform="translate(0,0)" fill="rgb(200,200,197)" d="M 1035.36 263.144 C 1044.14 263.19 1052.79 264.091 1060.97 264.161 C 1064.68 264.461 1068.31 264.199 1070.94 266.486 L 1072.85 271.11 C 1065.51 276.155 1043.62 267.657 1038.21 275.675 L 1038.44 276.365 C 1039.27 278.986 1039.41 279.162 1039.22 281.821 C 1036.39 283.535 1032.63 282.97 1029.1 282.901 C 1036.53 277.404 1029.51 277.65 1031.3 272.259 L 1035.34 270.671 L 1036.64 270.324 C 1037.72 267.815 1038.13 266.621 1040.18 264.807 L 1039.37 264.912 C 1037.88 263.6 1037.26 263.602 1035.36 263.144 z"></path>
<path transform="translate(0,0)" fill="rgb(250,250,250)" d="M 947.575 306.48 C 957.954 295.747 985.529 296.997 999.428 297.119 L 1000.45 297.345 C 1005.56 298.44 1013.75 297.921 1016.21 299.709 L 1015.07 301.107 C 996.745 301.066 956.897 310.437 947.575 306.48 z"></path>
<path transform="translate(0,0)" fill="rgb(200,200,197)" d="M 919.284 276.455 L 921.014 277.693 C 921.249 281.968 920.439 289.242 921.694 291.963 L 922.675 292.573 L 904.694 297.62 C 901.707 292.957 902.018 285.661 905.449 281.235 L 904.208 279.253 L 919.284 276.455 z"></path>
<path transform="translate(0,0)" fill="rgb(165,163,160)" d="M 904.208 279.253 L 905.449 281.235 C 902.018 285.661 901.707 292.957 904.694 297.62 C 901.167 299.285 899.264 300.462 895.358 300.597 C 891.405 297.844 887.891 295.918 887.514 290.676 C 888.422 287.466 889.541 286.934 892.146 284.988 L 893.623 282.521 C 896.304 281.076 901.103 280.05 904.208 279.253 z"></path>
<path transform="translate(0,0)" fill="rgb(180,180,177)" d="M 904.208 279.253 L 905.449 281.235 C 902.018 285.661 901.707 292.957 904.694 297.62 C 901.167 299.285 899.264 300.462 895.358 300.597 C 897.384 299.107 898.301 298.572 899.886 296.653 C 901.263 289.028 898.609 288.055 892.146 284.988 L 893.623 282.521 C 896.304 281.076 901.103 280.05 904.208 279.253 z"></path>
<path transform="translate(0,0)" fill="rgb(235,235,233)" d="M 999.428 297.119 C 1006.57 297.114 1027.38 296.515 1032.91 298.967 C 1031.65 300.323 1030.22 300.323 1028.34 300.683 L 1015.07 301.107 L 1016.21 299.709 C 1013.75 297.921 1005.56 298.44 1000.45 297.345 L 999.428 297.119 z"></path>
<path transform="translate(0,0)" fill="rgb(115,113,110)" d="M 950.075 17.1774 C 878.688 85.3621 984.282 118.308 1037.96 121.541 C 1092.93 124.851 1188.63 135.404 1193.19 204.94 C 1195.62 227.797 1172.61 251.052 1172.73 256.761 L 1173.72 257.43 C 1170.04 257.876 1161.68 267.109 1158.56 270.19 L 1158.15 271.891 L 1158.8 272.46 C 1155.32 272.913 1151.85 276.349 1148.95 278.703 C 1144.98 281.12 1135.44 287.538 1131.26 287.72 C 1146.98 267.054 1162.11 239.118 1150.07 212.784 C 1106.09 116.619 923.643 196.198 886.23 101.751 C 878.176 56.9364 914.124 32.0667 950.075 17.1774 z"></path>
<path transform="translate(0,0)" fill="rgb(252,252,252)" d="M 886.23 101.751 C 923.643 196.198 1106.09 116.619 1150.07 212.784 C 1162.11 239.118 1146.98 267.054 1131.26 287.72 C 1125.42 291.405 1118.71 286.51 1117.48 291.076 C 1115.39 293.643 1113.29 296.426 1110.89 298.665 L 1110.49 299.047 C 1107.88 301.486 1105.71 304.559 1101.98 302.948 C 1102.49 298.773 1117.73 274.484 1120.19 264.638 C 1131.64 218.851 1101.08 198.791 1062.34 187.192 C 1036.57 181.208 1017.23 179.474 990.791 179.261 C 973.821 179.125 948.81 179.906 932.71 177.039 C 906.318 177.572 864.198 160.226 861.964 130.946 C 861.257 121.684 862.627 115.751 865.494 107.277 C 870.829 105.405 880.466 103.224 886.23 101.751 z"></path>
<path transform="translate(0,0)" fill="rgb(255,255,255)" d="M 932.71 177.039 C 952.886 175.633 988.159 174.311 1007.87 176.88 L 1002.47 177.026 C 1015.14 177.88 1053.81 177.643 1062.34 187.192 C 1036.57 181.208 1017.23 179.474 990.791 179.261 C 973.821 179.125 948.81 179.906 932.71 177.039 z"></path>
<path transform="translate(0,0)" fill="rgb(220,220,218)" d="M 925.476 552.231 C 926.239 554.443 925.953 555.255 926.354 556.784 C 938.609 603.46 960.037 648.939 997.026 681.169 C 1033.79 713.203 1081.87 730.057 1129.65 736.422 C 1139.36 737.715 1149.45 737.595 1158.86 740.424 C 1156.86 740.834 1147.66 741.016 1144.94 741.22 C 1130.78 742.284 1123.45 745.378 1110.69 751.171 C 1068.33 746.265 1022.1 733.823 984.003 715.016 C 922.582 684.696 898.955 643.534 878.252 580.827 C 885.008 584.453 892.486 588.755 900.265 588.68 C 920.1 588.488 925.149 567.919 925.476 552.231 z"></path>
<path transform="translate(0,0)" fill="rgb(220,220,218)" d="M 853.269 312.158 C 860.472 318.55 878.436 330.506 887.869 330.21 C 894.137 332.844 900.155 335.688 906.308 338.565 C 903.535 378.011 901.032 411.78 903.153 451.629 C 904.217 471.622 908.729 496.464 909.305 514.369 C 903.703 510.01 901.789 509.061 895.478 506.151 C 883.034 507.721 871.89 502.553 859.365 498.774 C 848.801 440.797 850.634 370.638 853.269 312.158 z"></path>
<path transform="translate(0,0)" fill="rgb(250,250,250)" d="M 724.408 334.785 C 726.667 334.65 736.047 331.084 738.279 329.723 C 767.727 311.772 793.464 317.059 823.956 326.371 C 818.789 334.853 819.035 337.317 818.778 347.086 C 791.347 335.341 755.656 331.7 741.99 364.975 C 740.585 368.327 739.861 371.926 739.861 375.561 C 737.247 381.782 736.642 383.46 735.636 390.103 C 727.949 413.808 751.139 446.808 765.79 463.574 L 773.259 470.779 C 777.698 475.086 780.7 477.831 785.59 481.75 C 788.031 483.956 789.556 484.543 790.288 487.278 L 790.009 487.87 C 780.44 488.089 773.115 488.619 763.948 491.887 C 762.029 492.572 758.015 494.565 756.712 493.929 C 753.887 491.193 753.383 491.011 749.737 489.696 L 747.165 486.388 C 745.416 484.923 740.347 478.731 738.476 476.51 C 721.575 456.441 708.197 430.653 705.016 404.371 C 701.839 379.51 708.831 354.42 724.408 334.785 z"></path>
<path transform="translate(0,0)" fill="rgb(252,252,252)" d="M 785.59 481.75 C 788.031 483.956 789.556 484.543 790.288 487.278 L 790.009 487.87 C 780.44 488.089 773.115 488.619 763.948 491.887 C 762.029 492.572 758.015 494.565 756.712 493.929 C 753.887 491.193 753.383 491.011 749.737 489.696 L 747.165 486.388 C 745.75 486.176 784.844 481.912 785.59 481.75 z"></path>
<path transform="translate(0,0)" fill="rgb(220,220,218)" d="M 832.435 321.711 C 832.574 321.877 833.957 323.532 833.957 323.532 C 834.063 343.411 832.889 363.203 832.983 383.138 C 808.26 351.782 765.559 336.949 739.861 375.561 C 739.861 371.926 740.585 368.327 741.99 364.975 C 755.656 331.7 791.347 335.341 818.778 347.086 C 819.035 337.317 818.789 334.853 823.956 326.371 C 827.392 323.822 828.56 323.387 832.435 321.711 z"></path>
<path transform="translate(0,0)" fill="url(#svgi_r_19___Gradient4)" d="M 762.135 367.913 C 759.011 373.02 756.512 377.108 754.47 382.812 C 746.662 404.624 757.329 426.13 769.678 443.746 C 771.696 446.613 774.387 449.179 776.199 452.177 L 790.46 465.636 C 784.294 469.532 775.218 467.587 773.259 470.779 L 765.79 463.574 C 751.139 446.808 727.949 413.808 735.636 390.103 L 737.464 390.042 C 744.672 376.6 747.528 374.146 762.135 367.913 z"></path>
<path transform="translate(0,0)" fill="rgb(180,180,177)" d="M 776.199 452.177 L 790.46 465.636 C 784.294 469.532 775.218 467.587 773.259 470.779 L 765.79 463.574 C 767.119 463.633 768.449 463.671 769.78 463.688 C 773.594 463.71 773.673 463.199 775.974 460.916 C 777.126 456.831 777.069 456.297 776.199 452.177 z"></path>
<path transform="translate(0,0)" fill="rgb(252,252,252)" d="M 724.408 334.785 C 731.962 324.386 746.722 314.658 758.797 310.957 C 786.846 302.362 807.795 309.011 832.435 321.711 C 828.56 323.387 827.392 323.822 823.956 326.371 C 793.464 317.059 767.727 311.772 738.279 329.723 C 736.047 331.084 726.667 334.65 724.408 334.785 z"></path>
<path transform="translate(0,0)" fill="url(#svgi_r_19___Gradient3)" d="M 878.127 276.171 C 910.237 267.109 947.08 263.583 980.544 263.171 C 977.819 265.03 976.593 265.52 973.451 266.404 L 974.074 267.015 C 975.996 268.919 976.616 269.31 977.501 271.887 C 968.863 271.983 924.489 273.453 919.284 276.455 L 904.208 279.253 C 901.103 280.05 896.304 281.076 893.623 282.521 C 886.255 285.088 881.054 286.812 877.407 294.249 C 875.153 290.162 878.225 282.566 879.59 277.625 L 878.127 276.171 z"></path>
<path transform="translate(0,0)" fill="rgb(200,200,197)" d="M 1324.86 1061.55 C 1315.55 1065.97 1266.86 1088.11 1259.41 1078.4 C 1259.97 1071.22 1275.79 1060.12 1281.95 1056.54 C 1286.44 1057.38 1290.86 1058.58 1295.26 1059.23 C 1303.47 1060.44 1317.34 1059.29 1324.86 1061.55 z"></path>
<path transform="translate(0,0)" fill="rgb(220,220,218)" d="M 1305.11 1043.49 C 1312.62 1044.16 1348.11 1044.16 1350.82 1045.32 C 1342.33 1051.36 1334.25 1056.94 1324.86 1061.55 C 1317.34 1059.29 1303.47 1060.44 1295.26 1059.23 C 1290.86 1058.58 1286.44 1057.38 1281.95 1056.54 C 1290.16 1051.53 1296.53 1047.76 1305.11 1043.49 z"></path>
<path transform="translate(0,0)" fill="rgb(220,220,218)" d="M 790.46 465.636 C 803.661 476.811 813.926 482.828 828.639 491.725 C 815.693 489.998 803.1 488.38 790.009 487.87 L 790.288 487.278 C 789.556 484.543 788.031 483.956 785.59 481.75 C 780.7 477.831 777.698 475.086 773.259 470.779 C 775.218 467.587 784.294 469.532 790.46 465.636 z"></path>
<path transform="translate(0,0)" fill="rgb(50,33,21)" d="M 1360.31 1040.06 C 1363.3 1038.25 1365.58 1037 1368.7 1035.44 C 1372.06 1037.56 1373.56 1037.14 1377.43 1036.83 L 1376.94 1037.39 C 1368.3 1047.47 1365.9 1054.98 1352.61 1062.28 C 1350.65 1051.95 1361.5 1048.84 1359.5 1041.29 C 1355.8 1041.31 1354.94 1044.13 1350.82 1045.32 C 1348.11 1044.16 1312.62 1044.16 1305.11 1043.49 C 1308.05 1041.6 1311.28 1039.16 1314.66 1038.57 C 1317.99 1039.62 1351.62 1039.19 1360.31 1040.06 z"></path>
<path transform="translate(0,0)" fill="rgb(165,163,160)" d="M 1314.66 1038.57 C 1317.32 1037.14 1326.76 1032.02 1329.1 1031.43 C 1343.52 1027.8 1364.84 1028.94 1379.94 1028.87 L 1368.7 1035.44 C 1365.58 1037 1363.3 1038.25 1360.31 1040.06 C 1351.62 1039.19 1317.99 1039.62 1314.66 1038.57 z"></path>
<path transform="translate(0,0)" fill="rgb(220,220,218)" d="M 1519.14 494.683 C 1543.39 456.267 1579.92 475.649 1609.93 494.33 C 1621.66 501.629 1623.01 508.5 1631.49 517.821 C 1634.09 520.675 1644.24 524.549 1648.33 526.763 L 1634.05 523.975 C 1650.6 564.069 1645.61 596.518 1611.15 624.693 C 1589.69 643.926 1552.1 655.662 1526.19 637.613 C 1523.08 635.45 1516.51 626.519 1514.5 625.649 L 1512.76 624.439 C 1511.71 611.772 1507.06 615.7 1499.67 607.693 C 1499.61 604.357 1487.66 587.973 1484.94 582.933 C 1473.13 561.064 1468.99 536.887 1479.48 513.609 C 1488.19 499.168 1498.89 494.792 1515.12 499.541 C 1516.79 498.462 1517.91 496.424 1519.14 494.683 z"></path>
<path transform="translate(0,0)" fill="rgb(252,252,252)" d="M 1519.14 494.683 C 1543.39 456.267 1579.92 475.649 1609.93 494.33 C 1621.66 501.629 1623.01 508.5 1631.49 517.821 C 1634.09 520.675 1644.24 524.549 1648.33 526.763 L 1634.05 523.975 C 1650.6 564.069 1645.61 596.518 1611.15 624.693 C 1608.72 613.51 1632.21 608.764 1614.85 598.17 C 1610.61 600.334 1609.81 600.417 1605.06 601.066 L 1602.77 603.609 C 1598.37 604.136 1596.75 603.088 1593.53 600.411 C 1590.64 598.114 1588.04 598.416 1586.14 594.699 C 1579.46 601.15 1562.04 591.564 1556.2 587.108 C 1556.82 584.559 1558.05 580.907 1558.84 578.335 C 1556.58 576.57 1554.73 575.902 1552.14 574.737 C 1553.45 572.571 1555.45 569.829 1556.93 567.679 L 1557.24 566.359 C 1555.23 564.941 1545.97 560.204 1541.89 557.545 C 1548.75 549.5 1546.9 546.982 1551.53 539.129 C 1569.07 521.56 1583.79 518.761 1607.23 516.886 C 1580.79 509.087 1570.71 514.436 1549.52 530.969 C 1547.97 525.945 1546.41 522.354 1544.34 517.581 C 1542.69 514.323 1542.01 513.608 1539.71 510.963 C 1535.63 511.947 1535.12 511.465 1532.08 509.848 L 1535.44 504.661 C 1529.58 499.39 1526.71 496.77 1519.14 494.683 z"></path>
<path transform="translate(0,0)" fill="rgb(250,250,250)" d="M 1541.89 557.545 C 1548.75 549.5 1546.9 546.982 1551.53 539.129 C 1553.39 540.432 1570.2 554.083 1570.48 554.61 C 1566.04 558.493 1561.62 562.41 1557.24 566.359 C 1555.23 564.941 1545.97 560.204 1541.89 557.545 z"></path>
<path transform="translate(0,0)" fill="rgb(34,23,16)" d="M 1535.44 504.661 C 1549.27 492.119 1561.85 485.041 1580.64 490.719 L 1580 491.799 C 1565.43 493.211 1550.65 497.419 1540.99 509.31 C 1540.55 509.85 1540.13 510.402 1539.71 510.963 C 1535.63 511.947 1535.12 511.465 1532.08 509.848 L 1535.44 504.661 z"></path>
<path transform="translate(0,0)" fill="rgb(34,23,16)" d="M 1570.48 554.61 C 1576.73 550.547 1578.65 549.459 1585.64 546.661 C 1590.07 551.176 1588.27 549.697 1595.08 551.535 C 1582.93 555.545 1572.97 559.152 1564.59 569.607 C 1562.03 568.564 1559.63 568.218 1556.93 567.679 L 1557.24 566.359 C 1561.62 562.41 1566.04 558.493 1570.48 554.61 z"></path>
<path transform="translate(0,0)" fill="rgb(34,23,16)" d="M 1586.14 594.699 C 1596.62 587.507 1606.1 588.715 1614.85 598.17 C 1610.61 600.334 1609.81 600.417 1605.06 601.066 L 1602.77 603.609 C 1598.37 604.136 1596.75 603.088 1593.53 600.411 C 1590.64 598.114 1588.04 598.416 1586.14 594.699 z"></path>
<path transform="translate(0,0)" fill="rgb(34,23,16)" d="M 1585.64 546.661 C 1601.23 542.658 1606.81 542.793 1621.26 551.297 C 1610.97 550.545 1605.48 550.096 1595.08 551.535 C 1588.27 549.697 1590.07 551.176 1585.64 546.661 z"></path>
<path transform="translate(0,0)" fill="rgb(50,33,21)" d="M 1556.93 567.679 C 1559.63 568.218 1562.03 568.564 1564.59 569.607 L 1558.84 578.335 C 1556.58 576.57 1554.73 575.902 1552.14 574.737 C 1553.45 572.571 1555.45 569.829 1556.93 567.679 z"></path>
<path transform="translate(0,0)" fill="rgb(34,23,16)" d="M 1532.08 509.848 C 1535.12 511.465 1535.63 511.947 1539.71 510.963 C 1542.01 513.608 1542.69 514.323 1544.34 517.581 C 1546.41 522.354 1547.97 525.945 1549.52 530.969 C 1570.71 514.436 1580.79 509.087 1607.23 516.886 C 1583.79 518.761 1569.07 521.56 1551.53 539.129 C 1546.9 546.982 1548.75 549.5 1541.89 557.545 C 1545.97 560.204 1555.23 564.941 1557.24 566.359 L 1556.93 567.679 C 1555.45 569.829 1553.45 572.571 1552.14 574.737 C 1554.73 575.902 1556.58 576.57 1558.84 578.335 C 1558.05 580.907 1556.82 584.559 1556.2 587.108 C 1562.04 591.564 1579.46 601.15 1586.14 594.699 C 1588.04 598.416 1590.64 598.114 1593.53 600.411 C 1596.75 603.088 1598.37 604.136 1602.77 603.609 C 1598.6 612.06 1592.3 616.726 1583.08 618.991 C 1577.46 620.343 1571.6 620.361 1565.96 619.043 C 1546.72 614.557 1552.84 604.036 1542.68 595.763 C 1535.57 589.97 1522.59 599.876 1518.22 609.179 L 1517.9 609.87 C 1511.87 604.206 1522.42 591.985 1522.68 584.633 C 1522.94 577.507 1520.98 572.674 1518.69 566.156 C 1505.24 562.096 1494.8 555.705 1491.68 540.574 C 1490.99 537.23 1490.9 529.536 1493.7 527.337 C 1499.33 538.902 1502.92 550.004 1517.13 553.326 L 1518.05 553.535 C 1518.98 550.227 1519.79 547.985 1521 544.8 C 1529.31 545.394 1531.13 544.581 1538.73 540.894 C 1540.53 531.199 1538.1 526.7 1534.27 518.081 C 1533.38 517.014 1531.42 513.085 1530.65 511.644 L 1532.08 509.848 z"></path>
<path transform="translate(0,0)" fill="rgb(220,220,218)" d="M 1556.2 587.108 C 1562.04 591.564 1579.46 601.15 1586.14 594.699 C 1588.04 598.416 1590.64 598.114 1593.53 600.411 C 1577.46 612.404 1557.31 609.826 1556.2 587.108 z"></path>
<path transform="translate(0,0)" fill="rgb(220,220,218)" d="M 1552.14 574.737 C 1551.14 578.022 1551.56 578.453 1549.25 580.648 C 1539.93 579.368 1533.63 564.245 1541.89 557.545 C 1545.97 560.204 1555.23 564.941 1557.24 566.359 L 1556.93 567.679 C 1555.45 569.829 1553.45 572.571 1552.14 574.737 z"></path>
<path transform="translate(0,0)" fill="rgb(220,220,218)" d="M 1521 544.8 C 1529.31 545.394 1531.13 544.581 1538.73 540.894 C 1534.7 549.364 1528.18 555.582 1518.05 553.535 C 1518.98 550.227 1519.79 547.985 1521 544.8 z"></path>
<path transform="translate(0,0)" fill="rgb(34,23,16)" d="M 1532.08 509.848 C 1535.12 511.465 1535.63 511.947 1539.71 510.963 C 1542.01 513.608 1542.69 514.323 1544.34 517.581 C 1541.94 517.566 1536.26 517.295 1534.27 518.081 C 1533.38 517.014 1531.42 513.085 1530.65 511.644 L 1532.08 509.848 z"></path>
<path transform="translate(0,0)" fill="rgb(252,252,252)" d="M 1515.12 499.541 C 1516.79 498.462 1517.91 496.424 1519.14 494.683 C 1526.71 496.77 1529.58 499.39 1535.44 504.661 L 1532.08 509.848 L 1530.65 511.644 C 1531.42 513.085 1533.38 517.014 1534.27 518.081 C 1538.1 526.7 1540.53 531.199 1538.73 540.894 C 1531.13 544.581 1529.31 545.394 1521 544.8 C 1497.64 536.412 1503.23 515.698 1479.48 513.609 C 1488.19 499.168 1498.89 494.792 1515.12 499.541 z"></path>
<path transform="translate(0,0)" fill="rgb(220,220,218)" d="M 1515.12 499.541 C 1516.79 498.462 1517.91 496.424 1519.14 494.683 C 1526.71 496.77 1529.58 499.39 1535.44 504.661 L 1532.08 509.848 L 1530.65 511.644 C 1525.47 505.69 1522.56 502.149 1515.12 499.541 z"></path>
<path transform="translate(0,0)" fill="rgb(124,108,95)" d="M 834.465 759.4 C 845.464 763.519 852.703 766.475 862.691 772.582 C 863.547 773.629 864.209 774.699 864.862 775.879 C 866.741 776.345 867.7 776.551 869.608 776.821 C 875.741 779.393 878.124 781.494 883.291 785.489 L 872.886 791.469 C 859.126 795.191 850.07 796.349 840.93 807.711 C 833.543 815.184 830.342 829.721 832.748 839.783 C 836.19 848.595 837.576 852.287 838.889 861.886 C 840.329 862.927 840.253 863.045 841.983 863.273 C 837.705 869.213 830.892 870.247 829.076 877.477 C 827.431 876.729 821.063 870.205 819.355 868.538 C 812.21 864.15 805.643 877.282 802.463 882.484 C 798.745 888.566 799.023 893.389 791.752 896.682 C 789.237 898.067 786.94 901.513 785.262 903.863 L 780.274 914.244 C 785.002 918.247 798.801 927.889 798.021 933.683 C 794.202 931.998 790.402 930.27 786.621 928.499 C 785.924 925.249 785.813 924.824 783.868 922.142 C 781.194 920.123 779.403 920.419 776.104 920.384 C 772.442 926.129 767.542 933.117 766.229 939.778 C 765.6 943.982 765.047 943.184 766.8 946.226 C 770.445 947.531 773.316 947.973 776.238 950.266 C 789.964 957.189 794.56 958.739 803.463 971.388 C 802.796 974.357 802.1 977.98 801.173 980.825 C 800.156 998.493 782.422 1026.64 765.13 1031.65 C 758.96 1033.39 752.348 1032.56 746.804 1029.34 C 735.869 1022.9 726.473 1003.06 723.459 990.902 C 708.983 937.397 736.177 893.561 763.695 849.898 C 783.058 819.173 794.519 769.982 834.465 759.4 z"></path>
<path transform="translate(0,0)" fill="rgb(140,122,108)" d="M 766.229 939.778 C 765.6 943.982 765.047 943.184 766.8 946.226 C 770.445 947.531 773.316 947.973 776.238 950.266 C 789.964 957.189 794.56 958.739 803.463 971.388 C 802.796 974.357 802.1 977.98 801.173 980.825 L 800.609 980.292 C 796.527 991.78 791.877 1009.07 779.896 1013.62 C 757.631 1022.09 746.903 995.807 744.221 979.829 C 741.065 975.06 744.535 959.15 746.243 953.983 C 739.844 943.585 760.564 941.318 765.546 939.968 L 766.229 939.778 z"></path>
<path transform="translate(0,0)" fill="rgb(255,255,255)" d="M 749.051 956.152 C 752.057 971.267 749.312 1005.17 774.476 1006.97 C 789.245 1008.02 790.888 979.333 797.913 972.821 L 799.594 973.34 C 801.595 977.013 801.089 975.687 800.609 980.292 C 796.527 991.78 791.877 1009.07 779.896 1013.62 C 757.631 1022.09 746.903 995.807 744.221 979.829 C 745.679 968.834 745.596 966.422 749.051 956.152 z"></path>
<path transform="translate(0,0)" fill="rgb(75,64,55)" d="M 766.229 939.778 C 765.6 943.982 765.047 943.184 766.8 946.226 C 770.445 947.531 773.316 947.973 776.238 950.266 C 763.538 947.087 756.817 944.4 746.243 953.983 C 739.844 943.585 760.564 941.318 765.546 939.968 L 766.229 939.778 z"></path>
<path transform="translate(0,0)" fill="rgb(100,86,75)" d="M 862.691 772.582 C 863.547 773.629 864.209 774.699 864.862 775.879 C 866.741 776.345 867.7 776.551 869.608 776.821 C 866.656 777.536 862.197 778.813 859.296 779.243 C 847.167 781.04 829.433 801.562 819.324 801.51 L 818.432 800.556 C 821.363 796.66 830.043 792.894 831.119 791.398 C 841.683 776.703 850.23 779.117 862.691 772.582 z"></path>
<path transform="translate(0,0)" fill="rgb(100,86,75)" d="M 832.748 839.783 C 836.19 848.595 837.576 852.287 838.889 861.886 C 840.329 862.927 840.253 863.045 841.983 863.273 C 837.705 869.213 830.892 870.247 829.076 877.477 C 827.431 876.729 821.063 870.205 819.355 868.538 C 819.995 868.722 821.669 869.193 822.322 869.152 C 840.142 868.041 833.06 848.276 832.748 839.783 z"></path>
<path transform="translate(0,0)" fill="rgb(100,86,75)" d="M 776.104 920.384 C 782.116 913.559 777.655 907.853 785.262 903.863 L 780.274 914.244 C 785.002 918.247 798.801 927.889 798.021 933.683 C 794.202 931.998 790.402 930.27 786.621 928.499 C 785.924 925.249 785.813 924.824 783.868 922.142 C 781.194 920.123 779.403 920.419 776.104 920.384 z"></path>
<path transform="translate(0,0)" fill="rgb(124,108,95)" d="M 1370.51 893.338 C 1384.87 860.363 1441.15 836.946 1474.45 852.32 C 1484.32 856.878 1488.72 860.983 1495.4 869.388 C 1471.65 865.243 1446.39 875.28 1427.53 889.056 C 1387.24 918.463 1369.77 951.866 1322.86 975.306 C 1315.5 979.427 1310.53 981.99 1302.81 985.351 C 1292.97 989.542 1277.26 997.18 1268.04 1000.49 L 1260.91 1003.8 C 1248.86 1010.89 1241.86 1015.11 1231.13 1023.78 L 1225.82 1030.31 C 1219.22 1015.99 1215.44 998.946 1214.76 983.223 C 1213.44 978.343 1214.22 970.2 1214.56 964.981 L 1210.71 956.856 L 1214.02 949.587 C 1229.02 960.287 1243.53 955.873 1255.44 942.774 C 1262.84 934.642 1265.81 923.64 1272.94 916.322 C 1277.81 913.228 1286.71 908.638 1290.48 915.001 C 1288.18 920.074 1287.01 925.044 1291.64 928.743 C 1299.03 930.743 1309.39 926.927 1316.98 924.895 C 1318 920.713 1318.63 918.125 1320.19 914.123 L 1325.34 897.666 C 1318.73 905.271 1316.06 909.412 1312.3 918.467 L 1295.83 921.813 C 1304.57 896.049 1322.76 875.94 1351.84 882.233 C 1356.82 877.758 1369.78 867.061 1376.59 872.362 C 1375.59 875.147 1368.06 882.208 1365.24 885.507 C 1367.35 888.008 1369.53 890.211 1370.51 893.338 z"></path>
<path transform="translate(0,0)" fill="rgb(252,252,252)" d="M 1351.84 882.233 C 1356.82 877.758 1369.78 867.061 1376.59 872.362 C 1375.59 875.147 1368.06 882.208 1365.24 885.507 C 1367.35 888.008 1369.53 890.211 1370.51 893.338 L 1368.64 896.491 C 1366.9 900.44 1364.97 904.632 1363.34 908.591 C 1355.92 912.613 1352.23 914.016 1344.24 916.855 C 1337.86 918.972 1327.63 924.471 1322.22 922.375 C 1321.36 919.104 1322.01 918.963 1323.04 915.414 L 1320.19 914.123 L 1325.34 897.666 C 1318.73 905.271 1316.06 909.412 1312.3 918.467 L 1295.83 921.813 C 1304.57 896.049 1322.76 875.94 1351.84 882.233 z"></path>
<path transform="translate(0,0)" fill="rgb(50,33,21)" d="M 1323.04 915.414 C 1331.51 912.18 1334.52 887.597 1346.24 890.963 C 1341.98 899.728 1341.16 900.639 1338.63 909.988 C 1336.32 912.671 1334.73 913.438 1334.69 916.281 C 1337.72 917.33 1341.01 916.97 1344.24 916.855 C 1337.86 918.972 1327.63 924.471 1322.22 922.375 C 1321.36 919.104 1322.01 918.963 1323.04 915.414 z"></path>
<path transform="translate(0,0)" fill="rgb(34,23,16)" d="M 1358.11 897.197 C 1364.68 898.33 1363.47 898.865 1368.64 896.491 C 1366.9 900.44 1364.97 904.632 1363.34 908.591 C 1355.92 912.613 1352.23 914.016 1344.24 916.855 C 1341.01 916.97 1337.72 917.33 1334.69 916.281 C 1334.73 913.438 1336.32 912.671 1338.63 909.988 C 1343.56 908.636 1350.06 906.171 1355.02 904.46 L 1358.11 897.197 z"></path>
<path transform="translate(0,0)" fill="rgb(50,33,21)" d="M 1365.24 885.507 C 1367.35 888.008 1369.53 890.211 1370.51 893.338 L 1368.64 896.491 C 1363.47 898.865 1364.68 898.33 1358.11 897.197 C 1360.38 892.404 1362.19 889.899 1365.24 885.507 z"></path>
<path transform="translate(0,0)" fill="rgb(168,150,135)" d="M 1214.76 983.223 C 1228.05 978.551 1237.38 979.424 1250.84 982.248 C 1259.41 986.437 1263.44 992.215 1268.04 1000.49 L 1260.91 1003.8 C 1248.86 1010.89 1241.86 1015.11 1231.13 1023.78 L 1225.82 1030.31 C 1219.22 1015.99 1215.44 998.946 1214.76 983.223 z"></path>
<path transform="translate(0,0)" fill="rgb(124,108,95)" d="M 1231.13 1023.78 C 1228.17 1006.93 1215.78 992.868 1240.42 991.716 C 1257.03 990.939 1250.74 999.116 1260.91 1003.8 C 1248.86 1010.89 1241.86 1015.11 1231.13 1023.78 z"></path>
<path transform="translate(0,0)" fill="rgb(75,64,55)" d="M 1214.56 964.981 L 1215.85 965.999 C 1215.85 969.587 1215.7 972.088 1215.38 975.653 C 1223.48 972.997 1245.56 967.602 1250.1 978.909 C 1250.38 979.611 1250.68 981.412 1250.84 982.248 C 1237.38 979.424 1228.05 978.551 1214.76 983.223 C 1213.44 978.343 1214.22 970.2 1214.56 964.981 z"></path>
<path transform="translate(0,0)" fill="rgb(252,252,252)" d="M 668.366 589.659 L 672.819 597.71 C 680.615 608.488 686.11 611.964 697.781 618.375 C 694.924 619.731 691.971 620.634 690.488 623.212 C 707.757 631.638 716.419 634.09 735.942 632.707 C 747.256 648.005 754.413 661.584 751.5 681.541 C 751.367 682.433 751.192 683.318 750.975 684.194 L 748.744 685.671 C 743.392 690.689 739.471 688.759 733.359 689.816 C 729.444 688.784 726.047 688.667 723.9 685.998 C 724.577 682.546 726.369 679.703 728.028 676.559 C 714.476 685 709.271 687.536 701.668 701.986 C 701.784 703.737 702.011 705.505 702.209 707.253 L 703.655 708.35 C 708.387 707.057 710.112 700.042 715.634 697.461 L 717.358 698.447 C 732.273 730.175 664.004 758.744 659.96 692.409 L 659.59 691.265 L 658.578 692.712 C 654.378 701.322 655.766 711.068 658.2 719.857 C 628.356 713.125 627.906 696.167 627.5 668.903 C 623.402 677.076 622.753 684.611 621.722 693.525 C 603.574 679.09 604.349 659.26 609.878 638.805 C 617.181 619.438 628.918 605.295 646.523 594.066 C 650.484 591.54 654.846 589.596 659.527 590.808 L 661.135 593.89 C 662.448 592.908 666.767 590.568 668.366 589.659 z"></path>
<path transform="translate(0,0)" fill="rgb(220,220,218)" d="M 659.96 692.409 C 665.299 709.484 683.994 712.294 698.422 704.91 L 701.668 701.986 C 701.784 703.737 702.011 705.505 702.209 707.253 L 703.655 708.35 C 708.387 707.057 710.112 700.042 715.634 697.461 L 717.358 698.447 C 732.273 730.175 664.004 758.744 659.96 692.409 z"></path>
<path transform="translate(0,0)" fill="rgb(220,220,218)" d="M 627.403 667.717 L 628.928 666.983 C 629.956 680.67 644.073 695.74 658.578 692.712 C 654.378 701.322 655.766 711.068 658.2 719.857 C 628.356 713.125 627.906 696.167 627.5 668.903 L 627.403 667.717 z"></path>
<path transform="translate(0,0)" fill="rgb(235,235,233)" d="M 609.878 638.805 C 611.57 647.483 615.938 668.438 627.403 667.717 L 627.5 668.903 C 623.402 677.076 622.753 684.611 621.722 693.525 C 603.574 679.09 604.349 659.26 609.878 638.805 z"></path>
<path transform="translate(0,0)" fill="rgb(250,250,250)" d="M 698.422 704.91 C 699.976 699.893 702.087 695.065 704.714 690.517 C 711.226 679.193 717.192 675.487 729.016 672.333 C 735.64 684.106 735.033 685.064 748.744 685.671 C 743.392 690.689 739.471 688.759 733.359 689.816 C 729.444 688.784 726.047 688.667 723.9 685.998 C 724.577 682.546 726.369 679.703 728.028 676.559 C 714.476 685 709.271 687.536 701.668 701.986 L 698.422 704.91 z"></path>
<path transform="translate(0,0)" fill="rgb(50,33,21)" d="M 672.819 597.71 C 680.615 608.488 686.11 611.964 697.781 618.375 C 694.924 619.731 691.971 620.634 690.488 623.212 C 681.631 618.399 674.327 611.143 667.522 603.858 C 669.048 601.195 670.656 599.854 672.819 597.71 z"></path>
<path transform="translate(0,0)" fill="rgb(50,33,21)" d="M 668.366 589.659 L 672.819 597.71 C 670.656 599.854 669.048 601.195 667.522 603.858 C 664.819 600.54 663.253 597.587 661.135 593.89 C 662.448 592.908 666.767 590.568 668.366 589.659 z"></path>
<path transform="translate(0,0)" fill="rgb(252,252,252)" d="M 1322.01 984.699 C 1340.34 975.92 1359.59 961.913 1374.42 948.077 C 1404.97 919.554 1455.01 859.851 1502.71 879.731 C 1507.5 890.867 1507.89 895.122 1508.99 906.91 C 1479.58 875.415 1412.6 942.163 1396.14 964.486 C 1375.96 983.598 1363.12 996.404 1338.86 1010.98 C 1313.19 1026.73 1261.77 1043.88 1247.48 1073.68 C 1246.9 1074.88 1246.82 1080.15 1246.8 1081.82 C 1227.29 1073.08 1223.8 1059.08 1226.49 1038.8 C 1245.81 1013.39 1288.37 1001.04 1316.3 987.583 L 1322.01 984.699 z"></path>
<path transform="translate(0,0)" fill="rgb(252,252,252)" d="M 795.284 747.123 C 808.913 745.932 815.119 749.645 827.442 755.189 C 788.401 768.896 780.146 808.833 761.424 840.21 C 732.667 888.406 699.445 934.325 717.145 993.643 C 722.31 1010.95 726.868 1020.72 741.826 1032.2 C 743.982 1033.42 744.03 1033.42 745.784 1035.15 L 744.528 1036.26 C 724.023 1038.08 709.564 1024.09 701.759 1006.54 C 682.967 964.289 690.301 917.592 712.437 878.184 C 719.614 865.405 729.37 853.609 736.251 840.6 C 742.63 828.395 744.541 814.439 749.786 801.756 C 759.568 778.104 771.116 757.909 795.284 747.123 z"></path>
<path transform="translate(0,0)" fill="url(#svgi_r_19___Gradient2)" d="M 1440.27 936.881 C 1457.79 938.311 1477.26 940.858 1494.39 941.689 C 1487.51 951.229 1475.89 964.784 1466.71 972.066 C 1464.45 974.489 1459.46 980.725 1456.25 980.604 C 1450.73 985.48 1443.03 992.786 1436.17 995.279 C 1433.9 997.065 1428.32 1001.8 1425.98 1002.53 C 1422.96 1004.55 1409.48 1013.72 1407.66 1013.84 C 1392.96 1014.82 1355.63 1019.49 1343.21 1018.74 C 1341.86 1015.88 1340.87 1013.48 1338.86 1010.98 C 1363.12 996.404 1375.96 983.598 1396.14 964.486 C 1394.95 970.208 1394.02 972.934 1394.97 978.751 L 1398.44 976.48 C 1402.49 973.517 1403.07 972.665 1406.13 968.627 C 1418.88 955.26 1426.8 948.708 1440.27 936.881 z"></path>
<path transform="translate(0,0)" fill="rgb(200,200,197)" d="M 1440.27 936.881 C 1457.79 938.311 1477.26 940.858 1494.39 941.689 C 1487.51 951.229 1475.89 964.784 1466.71 972.066 C 1464.45 974.489 1459.46 980.725 1456.25 980.604 C 1438.34 978.524 1416.22 979.616 1398.44 976.48 C 1402.49 973.517 1403.07 972.665 1406.13 968.627 C 1418.88 955.26 1426.8 948.708 1440.27 936.881 z"></path>
<path transform="translate(0,0)" fill="rgb(50,33,21)" d="M 1398.44 976.48 C 1402.49 973.517 1403.07 972.665 1406.13 968.627 C 1411.02 971.57 1457.53 972.294 1466.71 972.066 C 1464.45 974.489 1459.46 980.725 1456.25 980.604 C 1438.34 978.524 1416.22 979.616 1398.44 976.48 z"></path>
<path transform="translate(0,0)" fill="rgb(180,180,177)" d="M 1398.44 976.48 C 1416.22 979.616 1438.34 978.524 1456.25 980.604 C 1450.73 985.48 1443.03 992.786 1436.17 995.279 C 1423.16 994.34 1405.87 992.977 1393.06 993.023 L 1388.35 992.051 C 1389.04 987.655 1393.55 985.272 1394.97 978.751 L 1398.44 976.48 z"></path>
<path transform="translate(0,0)" fill="rgb(50,33,21)" d="M 1393.06 993.023 C 1405.87 992.977 1423.16 994.34 1436.17 995.279 C 1433.9 997.065 1428.32 1001.8 1425.98 1002.53 C 1420.19 1000.77 1407.34 1000.6 1400.72 1000.3 L 1406.42 999.39 C 1405.63 998.578 1395.08 994.004 1393.06 993.023 z"></path>
<path transform="translate(0,0)" fill="rgb(34,23,16)" d="M 1388.35 992.051 L 1393.06 993.023 C 1395.08 994.004 1405.63 998.578 1406.42 999.39 L 1400.72 1000.3 C 1393.7 1000.41 1381.35 999.313 1373.95 998.897 C 1379.95 993.274 1380.47 991.882 1388.35 992.051 z"></path>
<path transform="translate(0,0)" fill="rgb(252,252,252)" d="M 1499.72 655.738 C 1498.63 655.022 1497.58 654.251 1496.57 653.428 C 1482.72 642.27 1463.17 614.425 1476.62 595.1 C 1477.93 593.221 1480.35 593.212 1482.43 593.048 C 1487 595.125 1487 596.59 1490.26 601.087 L 1499.67 607.693 C 1507.06 615.7 1511.71 611.772 1512.76 624.439 L 1514.5 625.649 C 1516.61 631.975 1518.3 634.474 1521.7 640.058 L 1527.81 646.774 C 1530.55 648.723 1533.8 651.177 1536.59 652.932 C 1540.28 654.21 1544.33 655.013 1546.29 658.074 C 1545.63 665.654 1530.73 667.095 1524.8 666.341 C 1522.91 666.086 1521.04 665.766 1519.17 665.381 C 1511.76 662.898 1506.09 660.286 1499.72 655.738 z"></path>
<path transform="translate(0,0)" fill="rgb(235,235,233)" d="M 1527.81 646.774 C 1530.55 648.723 1533.8 651.177 1536.59 652.932 C 1540.28 654.21 1544.33 655.013 1546.29 658.074 C 1545.63 665.654 1530.73 667.095 1524.8 666.341 C 1522.91 666.086 1521.04 665.766 1519.17 665.381 C 1511.76 662.898 1506.09 660.286 1499.72 655.738 L 1508.69 655.399 C 1517.16 655.022 1522.14 652.97 1527.81 646.774 z"></path>
<path transform="translate(0,0)" fill="rgb(220,220,218)" d="M 1536.59 652.932 C 1540.28 654.21 1544.33 655.013 1546.29 658.074 C 1545.63 665.654 1530.73 667.095 1524.8 666.341 C 1522.91 666.086 1521.04 665.766 1519.17 665.381 C 1521.4 661.265 1532.18 655.581 1536.59 652.932 z"></path>
<path transform="translate(0,0)" fill="rgb(250,250,250)" d="M 1490.26 601.087 L 1499.67 607.693 C 1507.06 615.7 1511.71 611.772 1512.76 624.439 C 1510.37 626.099 1508.21 627.598 1505.91 629.418 C 1498.52 621.106 1494.01 611.376 1490.26 601.087 z"></path>
<path transform="translate(0,0)" fill="rgb(250,250,250)" d="M 1512.76 624.439 L 1514.5 625.649 C 1516.61 631.975 1518.3 634.474 1521.7 640.058 C 1513.98 637.403 1511.63 635.277 1505.91 629.418 C 1508.21 627.598 1510.37 626.099 1512.76 624.439 z"></path>
<path transform="translate(0,0)" fill="rgb(124,108,95)" d="M 1276.66 867.238 C 1299.92 846.989 1312.63 848.228 1323.06 877.329 C 1310.3 883.883 1307.2 887.192 1298.32 898.695 C 1296.68 901.544 1295.32 903.619 1294.33 906.779 C 1293.52 908.666 1291.55 913.624 1290.48 915.001 C 1286.71 908.638 1277.81 913.228 1272.94 916.322 C 1272.25 914.863 1271.32 913.553 1270.45 912.187 C 1260.29 895.522 1261.54 879.958 1276.66 867.238 z"></path>
<path transform="translate(0,0)" fill="rgb(252,252,252)" d="M 1276.66 867.238 C 1299.92 846.989 1312.63 848.228 1323.06 877.329 C 1310.3 883.883 1307.2 887.192 1298.32 898.695 C 1292.97 885.875 1289.1 874.181 1276.66 867.238 z"></path>
<path transform="translate(0,0)" fill="rgb(75,64,55)" d="M 1294.33 906.779 C 1293.52 908.666 1291.55 913.624 1290.48 915.001 C 1286.71 908.638 1277.81 913.228 1272.94 916.322 C 1272.25 914.863 1271.32 913.553 1270.45 912.187 C 1284.17 904.494 1285.93 911.457 1294.33 906.779 z"></path>
<path transform="translate(0,0)" fill="rgb(252,252,252)" d="M 668.366 589.659 C 665.128 577.283 670.83 556.996 686.222 565.775 C 688.374 569.858 685.178 573.612 686.92 576.219 C 696.558 590.648 714.476 600.3 731.126 603.387 L 731.984 603.35 C 736.231 603.125 737.503 602.407 741.371 600.648 C 742.994 601.825 742.406 601.078 743.126 603.017 C 751.392 626.503 723.154 627.455 707.967 622.521 L 697.781 618.375 C 686.11 611.964 680.615 608.488 672.819 597.71 L 668.366 589.659 z"></path>
<path transform="translate(0,0)" fill="rgb(235,235,233)" d="M 731.126 603.387 L 731.984 603.35 C 736.231 603.125 737.503 602.407 741.371 600.648 C 742.994 601.825 742.406 601.078 743.126 603.017 C 751.392 626.503 723.154 627.455 707.967 622.521 C 709.543 615.986 725.061 622.19 729.321 610.978 C 730.148 608.146 730.595 606.289 731.126 603.387 z"></path>
<path transform="translate(0,0)" fill="rgb(255,255,255)" d="M 731.126 603.387 L 731.984 603.35 C 736.231 603.125 737.503 602.407 741.371 600.648 C 742.994 601.825 742.406 601.078 743.126 603.017 C 736.796 609.28 733.136 603.301 729.321 610.978 C 730.148 608.146 730.595 606.289 731.126 603.387 z"></path>
<path transform="translate(0,0)" fill="rgb(252,252,252)" d="M 878.361 796.64 C 879.148 796 879.949 795.378 880.762 794.774 C 886.791 790.321 890.099 790.43 897.156 791.529 C 901.966 793.588 908.848 797.599 907.604 803.631 C 904.715 805.961 899.474 805.295 895.84 806.286 C 875.254 811.903 871.584 837.383 871.518 855.129 C 868.931 852.823 865.286 849.423 862.265 847.915 C 855.074 844.325 843.634 847.509 843.777 836.155 C 843.882 827.725 845.879 817.849 851.966 811.658 L 855.219 808.238 C 862.032 803.205 866.463 802.696 874.61 801.083 C 875.958 799.816 877.2 798.117 878.361 796.64 z"></path>
<path transform="translate(0,0)" fill="rgb(220,220,218)" d="M 855.219 808.238 C 862.032 803.205 866.463 802.696 874.61 801.083 L 882.154 804.907 C 868.478 817.347 868.894 813.322 851.966 811.658 L 855.219 808.238 z"></path>
<path transform="translate(0,0)" fill="rgb(220,220,218)" d="M 878.361 796.64 C 879.148 796 879.949 795.378 880.762 794.774 C 886.791 790.321 890.099 790.43 897.156 791.529 L 892.942 792.284 C 890.343 798.89 887.944 800.787 882.154 804.907 L 874.61 801.083 C 875.958 799.816 877.2 798.117 878.361 796.64 z"></path>
<path transform="translate(0,0)" fill="rgb(124,108,95)" d="M 841.983 863.273 C 842.975 860.496 843.659 856.448 846.477 854.994 C 851.771 852.263 858.376 857.309 861.958 861.295 C 870.047 869.229 872.004 879.816 883.437 879.849 C 889.143 879.865 890.946 875.439 894.996 878.987 C 894.922 885.875 886.954 890.85 881.456 893.725 C 868.643 895.045 856.986 901.886 844.935 892.35 C 839.148 887.771 834.248 882.669 829.076 877.477 C 830.892 870.247 837.705 869.213 841.983 863.273 z"></path>
<path transform="translate(0,0)" fill="rgb(252,252,252)" d="M 861.958 861.295 C 870.047 869.229 872.004 879.816 883.437 879.849 C 889.143 879.865 890.946 875.439 894.996 878.987 C 894.922 885.875 886.954 890.85 881.456 893.725 C 872.395 891.672 858.907 884.79 855.627 875.304 C 854.505 872.059 860.08 864.492 861.958 861.295 z"></path>
<path transform="translate(0,0)" fill="rgb(250,250,250)" d="M 1212.06 925.894 C 1214.86 922.918 1218.13 922.761 1221.7 920.206 C 1232.81 912.249 1240.74 904.123 1253.22 898.099 C 1254.05 902.882 1255.26 906.505 1256.71 911.089 L 1260.51 918.715 C 1254.24 929.494 1241.5 949.51 1225.98 945.311 C 1225.04 938.308 1224.18 937.366 1219.56 932.118 L 1212.06 925.894 z"></path>
<path transform="translate(0,0)" fill="rgb(252,252,252)" d="M 1212.06 925.894 C 1214.86 922.918 1218.13 922.761 1221.7 920.206 C 1232.81 912.249 1240.74 904.123 1253.22 898.099 C 1254.05 902.882 1255.26 906.505 1256.71 911.089 C 1238.29 918.048 1232.77 926.649 1219.56 932.118 L 1212.06 925.894 z"></path>
<path transform="translate(0,0)" fill="url(#svgi_r_19___Gradient1)" d="M 1489.86 912.341 C 1507.95 914.112 1506.51 922.636 1498.79 935.771 C 1488.5 935.315 1478.08 935.365 1468.01 933.292 C 1462.49 933.123 1454.58 931.635 1448.94 930.679 C 1461.95 920.668 1472.92 913.812 1489.86 912.341 z"></path>
<path transform="translate(0,0)" fill="rgb(252,252,252)" d="M 815.108 875.726 C 826.585 884.394 835.111 894.619 848.237 904.301 C 843.883 909.883 842.378 911.368 837.173 916.032 L 835.743 915.864 L 832.649 918.461 C 827.218 919.116 823.095 916.072 821.672 910.729 C 823.443 908.298 823.569 908.928 827.124 908.139 L 805.481 888.926 C 808.512 884.399 811.429 879.734 815.108 875.726 z"></path>
<path transform="translate(0,0)" fill="rgb(100,86,75)" d="M 827.124 908.139 L 837.173 916.032 L 835.743 915.864 L 832.649 918.461 C 827.218 919.116 823.095 916.072 821.672 910.729 C 823.443 908.298 823.569 908.928 827.124 908.139 z"></path>
<path transform="translate(0,0)" fill="rgb(252,252,252)" d="M 797.316 899.529 C 803.889 902.58 823.301 918.97 829.998 924.251 C 827.795 928.044 823.056 933.802 820.24 937.44 C 810.937 931.86 799.426 920.924 788.023 913.631 C 791.405 907.694 793.282 904.925 797.316 899.529 z"></path>
<path transform="translate(0,0)" fill="rgb(252,252,252)" d="M 772.125 941.106 C 774.29 936.641 775.675 930.967 779.258 927.716 C 783.017 926.411 782.054 926.881 786.621 928.499 C 790.402 930.27 794.202 931.998 798.021 933.683 C 805.216 938.932 808.29 939.792 815.255 946.489 L 807.01 961.099 C 794.67 950.066 788.072 946.289 772.125 941.106 z"></path>
<path transform="translate(0,0)" fill="rgb(220,220,218)" d="M 748.744 685.671 L 750.975 684.194 C 746.889 699.27 744.065 704.449 730.763 713.616 L 730.306 715.18 C 724.586 716.217 717.743 713.02 719.011 706.813 C 721.134 704.428 724.007 704.564 727.052 704.358 L 725.698 698.78 C 726.789 694.846 729.788 693.356 733.359 689.816 C 739.471 688.759 743.392 690.689 748.744 685.671 z"></path>
<path transform="translate(0,0)" fill="rgb(50,33,21)" d="M 730.763 713.616 L 730.306 715.18 C 724.586 716.217 717.743 713.02 719.011 706.813 C 721.134 704.428 724.007 704.564 727.052 704.358 C 726.878 707.118 726.738 709.608 726.715 712.39 C 728.956 714.008 727.897 713.625 730.763 713.616 z"></path>
<path transform="translate(0,0)" fill="rgb(235,235,233)" d="M 1210.71 956.856 C 1204.82 944.316 1204.53 937.472 1212.06 925.894 L 1219.56 932.118 C 1224.18 937.366 1225.04 938.308 1225.98 945.311 C 1219.58 945.016 1218.02 944.196 1214.02 949.587 L 1210.71 956.856 z"></path>
<path transform="translate(0,0)" fill="rgb(220,220,218)" d="M 832.82 565.831 C 838.743 566.314 851.315 569.235 855.918 573.08 C 859.349 575.947 859.112 578.111 859.846 582.645 C 853.469 579.363 839.634 570.056 832.82 565.831 z"></path>
<path transform="translate(0,0)" fill="rgb(50,33,21)" d="M 645.474 370.398 L 664.664 369.844 C 662.347 377.846 661.454 382.355 661.476 390.677 C 572.937 393.96 484.349 395.715 395.75 395.941 C 387.408 395.978 379.93 396.264 371.693 394.846 C 392.153 391.528 417.123 390.023 438.065 387.478 C 507.142 379.085 576.262 375.637 645.474 370.398 z"></path>
<path transform="translate(0,0)" fill="rgb(115,113,110)" d="M 682.617 487.406 L 691.581 487.097 C 694.937 490.767 701.041 496.674 701.667 501.389 L 700.365 502.754 C 690.461 506.245 665.212 506.045 653.616 506.536 C 610.032 508.381 566.154 507.913 522.5 507.953 C 514.116 508.038 505.731 507.856 497.358 507.409 C 509.726 504.033 541.612 501.161 555.31 499.638 C 597.64 494.525 640.088 490.447 682.617 487.406 z"></path>
<path transform="translate(0,0)" fill="rgb(115,113,110)" d="M 538.228 293.502 C 577.684 288.767 617.259 285.081 656.912 282.449 C 678.595 280.881 706.143 278.832 727.84 279.031 C 713.115 285.577 706.824 294.595 697.4 298.884 C 691.627 296.292 654.062 298.171 645.737 298.813 C 641.404 298.36 632.028 299.001 627.216 298.925 C 610.514 298.66 590.037 300.292 573.616 298.766 C 568.707 297.243 544.919 297.844 534.098 295.916 L 533.368 296.392 L 533.543 296.781 C 536.314 296.473 536.896 295.993 539.446 294.709 L 538.228 293.502 z"></path>
<path transform="translate(0,0)" fill="rgb(115,113,110)" d="M 399.838 631.01 C 460.478 623.273 519.086 619.579 579.289 613.402 C 577.659 616.791 572.026 630.705 570.139 631.948 C 559.44 630.945 531.944 632.358 519.855 632.573 C 493.14 632.85 466.422 632.869 439.706 632.629 C 429.988 632.574 408.571 632.918 399.838 631.01 z"></path>
<path transform="translate(0,0)" fill="rgb(115,113,110)" d="M 545.743 824.906 C 594.765 818.793 656.971 813.143 705.424 811.759 C 701.789 818.55 700.786 821.677 698.415 828.938 C 670.651 829.518 642.88 829.715 615.11 829.53 C 607.934 829.479 587.435 829.711 581.406 828.917 C 576.424 824.068 560.651 827.597 553.8 825.602 C 552.025 825.085 547.772 825.012 545.743 824.906 z"></path>
<path transform="translate(0,0)" fill="rgb(115,113,110)" d="M 463.143 750.412 C 488.762 747.203 514.423 744.345 540.12 741.839 C 560.893 739.971 586.286 738.579 606.518 736.042 C 617.176 742.876 623.922 747.41 635.534 752.339 C 631.827 752.566 623.678 753.285 620.309 753.053 C 612.343 751.903 584.447 752.814 575.343 752.913 C 546.849 753.26 518.352 753.381 489.855 753.277 C 484.36 753.258 466.489 753.692 462.405 752.146 L 463.143 750.412 z"></path>
<path transform="translate(0,0)" fill="rgb(250,250,250)" fill-opacity="0.0235294" d="M 1235.93 759.418 C 1241.42 757.452 1248.34 754.395 1253.84 752.123 C 1257.18 754.749 1256.14 753.327 1257.42 757.941 L 1256.83 760.218 C 1252.12 762.17 1245.63 758.887 1241.24 763.487 C 1241.24 765.215 1241.28 766.348 1241.01 768.085 C 1236.25 770.235 1230.73 768.865 1225.68 768.772 C 1217.34 768.619 1216.85 767.25 1216.9 775.579 C 1214.33 776.221 1215.58 776.242 1213 775.439 C 1212.94 769.882 1216.29 771.771 1214.06 769.216 C 1206.56 770.095 1206.88 771.468 1198.78 771.011 C 1188.28 767.209 1178.03 762.776 1168.08 757.737 C 1171.44 755.82 1190.82 760.867 1195.69 761.531 C 1209.58 763.424 1217.61 765.674 1231.24 761.164 L 1232.93 761.797 C 1233.88 763.748 1233.58 764.607 1233.23 766.628 C 1236.7 767.194 1235.32 767.373 1238.48 766.033 L 1238.96 764.017 L 1235.93 759.418 z"></path>
<path transform="translate(0,0)" fill="rgb(50,33,21)" fill-opacity="0.839216" d="M 439.692 753.548 C 447.756 751.569 454.913 750.881 463.143 750.412 L 462.405 752.146 C 466.489 753.692 484.36 753.258 489.855 753.277 C 518.352 753.381 546.849 753.26 575.343 752.913 C 584.447 752.814 612.343 751.903 620.309 753.053 C 605.63 755.032 558.922 754.624 542.824 754.74 C 521.963 754.908 501.101 754.942 480.239 754.841 C 467.641 754.773 452.039 755.054 439.692 753.548 z"></path>
<path transform="translate(0,0)" fill="rgb(130,128,125)" fill-opacity="0.572549" d="M 570.139 631.948 C 557.745 634.529 402.703 635.907 394.709 632.258 C 396.471 630.463 396.344 631.09 399.838 631.01 C 408.571 632.918 429.988 632.574 439.706 632.629 C 466.422 632.869 493.14 632.85 519.855 632.573 C 531.944 632.358 559.44 630.945 570.139 631.948 z"></path>
<path transform="translate(0,0)" fill="rgb(50,33,21)" fill-opacity="0.988235" d="M 498.206 298.067 C 511.308 295.807 524.966 294.752 538.228 293.502 L 539.446 294.709 C 536.896 295.993 536.314 296.473 533.543 296.781 L 533.368 296.392 L 534.098 295.916 C 544.919 297.844 568.707 297.243 573.616 298.766 C 564.145 299.576 546.241 298.946 536.217 298.926 C 526.21 298.907 507.605 299.219 498.206 298.067 z"></path>
    <!-- Duke-style simple eyes + smile, in place of the removed expressive face -->
    <circle cx="1180" cy="470" r="30" fill="rgb(34,23,16)"/>
    <circle cx="1310" cy="460" r="30" fill="rgb(34,23,16)"/>
    <circle cx="1190" cy="460" r="9" fill="rgb(255,255,255)"/>
    <circle cx="1320" cy="450" r="9" fill="rgb(255,255,255)"/>
    <path d="M 1150 560 Q 1240 625 1335 550" fill="none" stroke="rgb(34,23,16)" stroke-width="20" stroke-linecap="round"/>
    <!-- Duke's red spiky crest -->
    <polygon points="1050,215 1078,130 1106,215" fill="rgb(196,46,40)" stroke="rgb(34,23,16)" stroke-width="8" stroke-linejoin="round"/>
    <polygon points="1112,205 1145,105 1178,205" fill="rgb(196,46,40)" stroke="rgb(34,23,16)" stroke-width="8" stroke-linejoin="round"/>
    <polygon points="1184,215 1212,135 1240,215" fill="rgb(196,46,40)" stroke="rgb(34,23,16)" stroke-width="8" stroke-linejoin="round"/>
  </g>
</svg>
